<?xml version="1.0" encoding="UTF-8"?>
<svg id="Layer_1" data-name="Layer 1" xmlns="http://www.w3.org/2000/svg" viewBox="0 0 1536 1536">
  <defs>
    <style>
      .cls-1 {
        fill: #984bd1;
      }

      .cls-2 {
        fill: #fcfcfb;
      }
    </style>
  </defs>
  <path class="cls-1" d="M802.64,0c5.38,1.89,11.37,1.08,16.86,1.51,290.6,22.58,539.38,196.98,654.39,464.48,36.23,84.27,60.23,183.23,61.34,275.39.02,1.27-.48,3.33.76,4.11v49.5c-1.76,6.19-1.11,12.82-1.51,19.12-24.54,386.7-329.88,695.61-717.22,719.64l-14.63,2.24h-50.99c-.78-1.24-2.85-.75-4.11-.76-4.57-.05-9.62.21-13.88.01-346.79-15.86-639.21-262.37-715.18-599.81-9.67-42.97-14.12-86.35-16.69-130.31-.14-2.43-.73-6.31-1.49-8.63.7-18.8-.94-38.28,0-57,4.88-96.86,26.04-191.72,65.11-280.26C183.29,192.05,445.25,11.48,738.91,0h63.74ZM859.75,197.89c3.2-20.57-.07-40.53-9.74-58.89-35.58-67.57-132.49-64.72-165.23,3.75-7.44,15.57-9.45,30.22-8.9,47.41.08,2.37,1.91,6.42.05,8.24-13.15,6.1-26.52,11.84-39.57,18.15-39.03,18.86-78.54,39.53-118.43,57.82-26.3,11.11-53.31,28.65-79.55,38.93-6.87,2.69-8.19-2.99-12.92-6.93-52.58-43.94-131.14-19-149.6,46.14-8.87,31.3.68,64.99,22.47,88.51,1.41,1.52,6.47,4.47,6.29,6.23l-106.75,229.26c-1.66,1.98-10.02-.56-12.76-.74-31.1-2.07-63.97,15.68-80.47,41.75-41.63,65.8,8.65,149.46,86.4,141.91,1.83-.18,5-2.09,6.06-.68,35.12,76.79,71.86,152.81,107.5,229.33.2.61.01,1.09-.23,1.65-.67,1.51-9.99,10.19-12.27,13.28-18.18,24.68-23.5,57.62-13.43,86.68,21.49,62.03,98.65,80.72,148.29,38.45,6.19-5.27,6.23-10.82,15.14-6.92,29.18,12.77,58.91,28.14,87.85,41.89,43,20.43,86.17,41.26,129.17,62.05,5.09,2.46,11.44,4.48,15.81,7.12.44.26.69,1.73,2.38,1.28-6.32,33.65,6.77,64.99,32.33,86.57,44.16,37.3,110.48,24.09,138.86-25.38,10.84-18.89,13.61-39.63,11.2-61.18,1.74-.23,3.32-.74,4.93-1.44,34.28-14.97,68.47-32.41,102.46-48.26,43.65-20.36,87.67-39.9,130.96-61.02l3.76.03c28.44,32.55,76.31,41.05,114.49,20,52.7-29.05,62.85-101.69,22.38-145.64-1.51-1.64-8.01-6.33-7.79-7.73l108.25-230.02c1.59-1.45,10.01.63,12.76.75,97.55,4.38,131.73-130.37,43.12-175.13-18.1-9.14-36.11-11.07-56.15-7.97l-107.24-229.9.22-.99c28.77-24.42,39.44-65,26.51-100.69-22.78-62.87-101.23-81.72-150.57-36.2-2.35,2.17-3.04,5.93-6.92,4.76-80.26-38.99-160.48-78.09-241.14-116.22Z"/>
  <path class="cls-2" d="M751.65,1536h-18v-.75c4.26.19,9.32-.06,13.88-.01,1.27.01,3.33-.48,4.11.76Z"/>
  <path class="cls-2" d="M859.75,197.89c80.65,38.13,160.88,77.23,241.14,116.22,3.88,1.18,4.57-2.59,6.92-4.76,49.34-45.52,127.79-26.67,150.57,36.2,12.93,35.7,2.26,76.28-26.51,100.69l-.22.99,107.24,229.9c20.04-3.1,38.05-1.17,56.15,7.97,88.6,44.76,54.42,179.52-43.12,175.13-2.75-.12-11.17-2.2-12.76-.75l-108.25,230.02c-.22,1.4,6.28,6.09,7.79,7.73,40.47,43.94,30.33,116.59-22.38,145.64-38.18,21.05-86.05,12.55-114.49-20l-3.76-.03c-43.29,21.12-87.31,40.66-130.96,61.02-33.99,15.85-68.18,33.3-102.46,48.26-1.61.7-3.19,1.21-4.93,1.44,2.41,21.55-.36,42.29-11.2,61.18-28.38,49.47-94.7,62.68-138.86,25.38-25.56-21.58-38.64-52.92-32.33-86.57-1.68.45-1.94-1.02-2.38-1.28-4.37-2.64-10.73-4.66-15.81-7.12-43-20.8-86.17-41.62-129.17-62.05-28.94-13.75-58.67-29.12-87.85-41.89-8.91-3.9-8.95,1.65-15.14,6.92-49.64,42.26-126.8,23.58-148.29-38.45-10.07-29.06-4.75-62,13.43-86.68,2.28-3.09,11.6-11.78,12.27-13.28.25-.55.43-1.04.23-1.65-35.64-76.52-72.38-152.54-107.5-229.33-1.06-1.41-4.23.5-6.06.68-77.75,7.54-128.03-76.12-86.4-141.91,16.49-26.07,49.37-43.82,80.47-41.75,2.74.18,11.11,2.73,12.76.74l106.75-229.26c.18-1.76-4.88-4.71-6.29-6.23-21.79-23.52-31.34-57.22-22.47-88.51,18.46-65.14,97.02-90.08,149.6-46.14,4.72,3.95,6.05,9.62,12.92,6.93,26.23-10.28,53.25-27.82,79.55-38.93,39.89-18.29,79.4-38.96,118.43-57.82,13.04-6.3,26.42-12.05,39.57-18.15,1.86-1.82.03-5.87-.05-8.24-.55-17.19,1.45-31.85,8.9-47.41,32.74-68.47,129.65-71.32,165.23-3.75,9.67,18.36,12.94,38.32,9.74,58.89ZM783.72,274.68c-1.64-1.69-10.26.45-12.95.56-16.74.71-42.39-5.94-55.78-16.2l-17.35-16.44c-1.7-.72-16.93,7.91-19.94,9.31-6.68,3.11-13.59,5.87-20.29,8.96l-199.72,97.26c-1.29,1.37.69,10.08.8,12.72.71,17.04-2.85,32.22-10.54,47.35l85.23,86.48c41.82-24.42,95.36-11.3,122.05,28.64,18.65,27.91,20.54,64.24,4.99,93.98l62.61,61.24c3.57-1.57,6.75-3.79,10.33-5.42,25.48-11.62,55.78-9.07,79.98,4.63l56.89-59.79c-4.47-10.68-8.77-20.5-10.29-32.18-4.01-30.68,8.38-59.62,30.55-80.31l-106.56-240.79ZM1043.8,340.81c-67.3-32.89-135.23-64.55-202.15-98.21-5.6-1.58-8.91,7.25-13.44,9.89l.89,4.92c35.62,75.68,65.41,154.48,101.63,229.85.67,1.39,2.43,5.73,3.63,6.14,21.46-3.06,44.53-.38,63.23,11.05l2.22-.04,88.35-87.54c.69-1.51-1.75-4.09-2.45-5.87-5.13-13.06-7.87-26-7.17-40.15.13-2.64,2.15-10.78,1.18-12.35-7.34-3.81-14.98-6.93-22.43-10.58-4.54-2.22-9.18-4.99-13.5-7.1ZM1187.13,468.24c-3.76-1.26-5.22,1.14-8.4,1.34-5.42.34-17.03-.16-22.14-1.2-12.82-2.61-25.71-8.16-36.49-15.32l-6.65,5.16-80.26,81.8c-.81,1.59,1.41,3.33,2.05,4.72,7.92,17.34,10.96,34.97,8.22,53.97l238.63,112.9c.85-.17,6.09-7.17,7.22-8.48,2.5-2.9,6.5-3.56,4.92-8.66-28.73-59.4-56.34-119.5-84.54-179.46-6.31-13.42-13.01-32.42-20.66-44.54-.18-.28-1.75-2.18-1.89-2.23ZM463.97,504.48c-15-15.18-29.72-31.78-45.33-46.53-1.24-1.18-2.94-2.09-4.15-3.34-20.16,12.52-42.64,16.33-66.17,13.48-4.56,11.32-10.49,22.29-15.72,33.39-30.39,64.48-58.99,129.81-90.51,193.76-.5,1.06-.46,1.93.04,2.99,1.66,3.57,10.8,8.37,11.7,13.48l233.57-110.21c-3.86-21.97.16-43.08,10.7-62.52-10.5-12.34-22.76-23.01-34.11-34.5ZM1058.83,660.29c-11.72-5.46-23.38-11.14-35.39-16-8.81,7.45-16.49,15.35-26.83,21.09-24.18,13.42-50.46,15.24-76.42,5.68-5.68-2.09-10.82-5.31-16.59-7.16l-56.37,56.84c17.67,28.18,18.41,62.01,2.79,91.27-12.31,23.05-32.86,38.06-57.76,45.35l-.1,116.14c17.84,3.11,33.82,14.09,45.02,28.15,3.75,1.32,5.52-1.78,8.18-3.07,70.11-33.79,137.26-70.65,207.02-104.94l210.53-108.54c1.01-1.74-1.31-12.93-1.37-15.94-.07-3.54,2.03-11.95-.42-13.83-67.36-31.75-135.09-63.72-202.28-95.04ZM445.7,873.75l77.9-213.52-.23-.98c-6.12-3.84-10.37-9.59-15.91-14.14l-234.13,111.39c.66,6.4.99,12.95.69,19.4-.15,3.18-2.62,7.8,0,9.69l171.68,88.16ZM633.46,669.47c-1.65-1.62-4.68-5.98-7.35-5.75-1.35.12-11.21,6.05-13.94,7.14-6.1,2.42-15.62,4.94-22.12,5.63-5.8.61-13.46-.65-18.77-.04-.83.09-1.64.04-2.22.8l-79.9,218.51,208.75,106.27c12.17-13.59,26.96-25.14,45.47-28.55l-.07-115.74c-5.53-3-11.86-4.88-17.65-7.85-38.85-19.96-59.02-64.1-46.37-106.64,2.12-7.12,6.23-13.46,8.54-20.47-18.38-17.54-36.26-35.52-54.37-53.3ZM400.45,904.78c-49.04-25.42-98.41-50.28-147.45-75.72-1.09-.53-1.74-.34-2.67.38-2.17,1.68-5.73,7.61-8.48,9.59l106.5,228.09c7.54-.15,14.26-1.65,21.99-1.37,1.25.04,2.66.88,3.76.77,2.73-.28,4.58-11.07,5.6-13.92,15.68-43.97,32.76-87.5,48.6-131.42l.07-2.34c-5.22-1.77-9.77-5.03-14.62-7.49-4.4-2.23-9.1-4.39-13.3-6.57ZM1288.06,832.99c-1.53-1.39-2.53-5.16-5.53-3.94l-422.78,216.57c.44,12.5,1.55,24.42-1.08,36.8-7.1,33.38-33.86,61.05-66.58,70.04l.39,106.82c13.65,4.02,26.6,10.17,37.16,19.83,2.68,2.45,7.13,8.88,9.32,10.18.98.58,1.65,1.03,2.85.59l238.18-111.73c-9.42-52.53,27.24-103.7,80.71-109.39,2.3-.25,6.2-.82,8.24-.82,4.63-.01,12.06,2.1,16.52,1.62,1.31-.14,1.71-.09,2.54-1.25,1.66-2.31,4.19-10.48,5.77-13.73,34.25-70.24,66.45-141.56,99.63-212.34,3.22-4.65-2.14-6.34-5.34-9.25ZM533.17,973.04c-20.34-10.43-40.5-21.39-61.2-31.04l-51.74,140.68c4.29,4.82,10.17,8.76,14.62,13.81,4.54,5.15,8.03,11.08,11.79,16.78l2.51,1.22c26.94-6.33,54.07-12.27,81.04-18.63,3.87-.91,8.08-2.7,12.07-3.64,44.18-10.39,88.55-19.92,132.58-30.94.7-.96,2.28-14.73,1.71-15.66-.25-.41-5.03-1.89-6.15-2.46-46.26-23.82-91.44-46.66-137.21-70.12ZM687.77,1108.66c-.99-.58-3.3-.12-4.54.04-46.23,11.45-93.53,22.26-139.31,33.14-25.62,6.09-55.49,11.24-80.21,18.78-1.4.43-4.72,1.09-5.14,2.36-.19.56-1.01,11.17-.86,11.75l240.18,114.42c12.11-13.97,27.25-24.77,45.44-29.24l.13-107.41c-18.02-5.49-34.58-15.48-46.51-30.14-1.9-2.34-8.45-13.28-9.17-13.7Z"/>
  <path class="cls-1" d="M783.72,274.68l106.56,240.79c-22.17,20.69-34.56,49.63-30.55,80.31,1.53,11.68,5.82,21.5,10.29,32.18l-56.89,59.79c-24.2-13.7-54.5-16.25-79.98-4.63-3.58,1.63-6.75,3.85-10.33,5.42l-62.61-61.24c15.55-29.74,13.66-66.08-4.99-93.98-26.69-39.95-80.23-53.06-122.05-28.64l-85.23-86.48c7.69-15.13,11.25-30.31,10.54-47.35-.11-2.64-2.09-11.34-.8-12.72l199.72-97.26c6.7-3.08,13.61-5.84,20.29-8.96,3.01-1.4,18.24-10.03,19.94-9.31l17.35,16.44c13.39,10.25,39.04,16.91,55.78,16.2,2.69-.11,11.32-2.26,12.95-.56Z"/>
  <path class="cls-1" d="M1288.06,832.99c3.2,2.91,8.57,4.6,5.34,9.25-33.18,70.78-65.39,142.11-99.63,212.34-1.58,3.25-4.11,11.42-5.77,13.73-.83,1.15-1.23,1.11-2.54,1.25-4.46.47-11.89-1.63-16.52-1.62-2.04,0-5.93.58-8.24.82-53.47,5.69-90.13,56.86-80.71,109.39l-238.18,111.73c-1.2.44-1.86,0-2.85-.59-2.2-1.3-6.65-7.73-9.32-10.18-10.56-9.67-23.51-15.82-37.16-19.83l-.39-106.82c32.71-8.99,59.47-36.66,66.58-70.04,2.63-12.37,1.52-24.3,1.08-36.8l422.78-216.57c3-1.22,4,2.55,5.53,3.94Z"/>
  <path class="cls-1" d="M1058.83,660.29c67.18,31.32,134.92,63.29,202.28,95.04,2.45,1.89.35,10.29.42,13.83.06,3.01,2.38,14.2,1.37,15.94l-210.53,108.54c-69.76,34.29-136.91,71.15-207.02,104.94-2.66,1.28-4.43,4.39-8.18,3.07-11.2-14.06-27.18-25.04-45.02-28.15l.1-116.14c24.91-7.3,45.45-22.3,57.76-45.35,15.63-29.26,14.89-63.09-2.79-91.27l56.37-56.84c5.76,1.85,10.91,5.07,16.59,7.16,25.97,9.56,52.25,7.74,76.42-5.68,10.34-5.74,18.02-13.64,26.83-21.09,12,4.86,23.67,10.54,35.39,16Z"/>
  <path class="cls-1" d="M633.46,669.47c18.11,17.78,35.99,35.76,54.37,53.3-2.31,7.01-6.43,13.35-8.54,20.47-12.65,42.53,7.52,86.68,46.37,106.64,5.78,2.97,12.12,4.85,17.65,7.85l.07,115.74c-18.5,3.41-33.3,14.96-45.47,28.55l-208.75-106.27,79.9-218.51c.58-.76,1.39-.7,2.22-.8,5.31-.6,12.97.65,18.77.04,6.5-.68,16.02-3.2,22.12-5.63,2.74-1.09,12.59-7.03,13.94-7.14,2.68-.23,5.7,4.13,7.35,5.75Z"/>
  <path class="cls-1" d="M1043.8,340.81c4.32,2.11,8.97,4.88,13.5,7.1,7.44,3.65,15.08,6.77,22.43,10.58.98,1.57-1.04,9.71-1.18,12.35-.71,14.14,2.03,27.08,7.17,40.15.7,1.78,3.14,4.36,2.45,5.87l-88.35,87.54-2.22.04c-18.71-11.43-41.78-14.11-63.23-11.05-1.2-.4-2.97-4.75-3.63-6.14-36.22-75.37-66-154.17-101.63-229.85l-.89-4.92c4.53-2.64,7.83-11.47,13.44-9.89,66.92,33.67,134.85,65.32,202.15,98.21Z"/>
  <path class="cls-1" d="M1187.13,468.24c.14.05,1.72,1.95,1.89,2.23,7.66,12.12,14.35,31.12,20.66,44.54,28.2,59.97,55.81,120.06,84.54,179.46,1.58,5.1-2.42,5.77-4.92,8.66-1.13,1.31-6.37,8.31-7.22,8.48l-238.63-112.9c2.73-19.01-.3-36.63-8.22-53.97-.64-1.39-2.86-3.13-2.05-4.72l80.26-81.8,6.65-5.16c10.78,7.16,23.67,12.71,36.49,15.32,5.11,1.04,16.71,1.54,22.14,1.2,3.18-.2,4.64-2.59,8.4-1.34Z"/>
  <path class="cls-1" d="M463.97,504.48c11.35,11.49,23.61,22.15,34.11,34.5-10.54,19.44-14.56,40.55-10.7,62.52l-233.57,110.21c-.9-5.12-10.04-9.91-11.7-13.48-.49-1.06-.53-1.93-.04-2.99,31.52-63.94,60.11-129.28,90.51-193.76,5.23-11.1,11.16-22.07,15.72-33.39,23.53,2.85,46.01-.96,66.17-13.48,1.22,1.26,2.91,2.17,4.15,3.34,15.62,14.76,30.34,31.36,45.33,46.53Z"/>
  <path class="cls-1" d="M687.77,1108.66c.71.42,7.26,11.36,9.17,13.7,11.93,14.66,28.49,24.65,46.51,30.14l-.13,107.41c-18.19,4.48-33.33,15.27-45.44,29.24l-240.18-114.42c-.14-.57.68-11.19.86-11.75.42-1.27,3.74-1.93,5.14-2.36,24.73-7.53,54.6-12.69,80.21-18.78,45.78-10.88,93.08-21.69,139.31-33.14,1.23-.16,3.55-.62,4.54-.04Z"/>
  <path class="cls-1" d="M445.7,873.75l-171.68-88.16c-2.62-1.89-.15-6.5,0-9.69.3-6.44-.03-12.99-.69-19.4l234.13-111.39c5.54,4.54,9.79,10.29,15.91,14.14l.23.98-77.9,213.52Z"/>
  <path class="cls-1" d="M533.17,973.04c45.78,23.47,90.95,46.3,137.21,70.12,1.12.58,5.9,2.05,6.15,2.46.57.93-1.01,14.7-1.71,15.66-44.02,11.02-88.4,20.55-132.58,30.94-3.99.94-8.2,2.72-12.07,3.64-26.97,6.36-54.1,12.3-81.04,18.63l-2.51-1.22c-3.76-5.69-7.24-11.62-11.79-16.78-4.45-5.05-10.33-8.99-14.62-13.81l51.74-140.68c20.71,9.65,40.86,20.61,61.2,31.04Z"/>
  <path class="cls-1" d="M400.45,904.78c4.2,2.18,8.9,4.34,13.3,6.57,4.85,2.46,9.4,5.72,14.62,7.49l-.07,2.34c-15.84,43.92-32.92,87.45-48.6,131.42-1.02,2.85-2.86,13.65-5.6,13.92-1.09.11-2.51-.72-3.76-.77-7.74-.28-14.45,1.22-21.99,1.37l-106.5-228.09c2.75-1.99,6.31-7.92,8.48-9.59.93-.71,1.58-.91,2.67-.38,49.04,25.45,98.4,50.3,147.45,75.72Z"/>
</svg>